<svg version="1.1" xmlns="http://www.w3.org/2000/svg" xmlns:xlink="http://www.w3.org/1999/xlink" width="48" height="48"><defs><linearGradient x1="7.70247" y1="8.47245" x2="75.6833" y2="74.91332" gradientUnits="userSpaceOnUse" id="color-1"><stop offset="0" stop-color="#000000" stop-opacity="0.11"></stop><stop offset="1" stop-color="#000000" stop-opacity="0"></stop></linearGradient><filter id="dropshadow-base"><feColorMatrix type="matrix" values="0 0 0 0 0  0 0 0 0 0  0 0 0 0 0  0 0 0 .8 0"></feColorMatrix> <feOffset dx="0" dy="1"></feOffset> <feGaussianBlur stdDeviation="1"></feGaussianBlur> <feComposite in="SourceGraphic"></feComposite></filter><filter id="dropshadow-banner" x="-10%" y="-10%" width="120%" height="130%"><feColorMatrix type="matrix" values="0 0 0 0 0  0 0 0 0 0  0 0 0 0 0  0 0 0 .4 0"></feColorMatrix> <feOffset dx="0" dy="1"></feOffset> <feGaussianBlur stdDeviation="0.5"></feGaussianBlur> <feComposite in="SourceGraphic"></feComposite></filter></defs><g fill="none" fill-rule="nonzero" stroke="none" stroke-width="none" stroke-linecap="butt" stroke-linejoin="miter" stroke-miterlimit="10" stroke-dasharray="" stroke-dashoffset="0" font-family="none" font-weight="none" font-size="none" text-anchor="none" style="mix-blend-mode: normal"><path d="M2,24c0,-12.15026 9.84974,-22 22,-22c12.15026,0 22,9.84974 22,22c0,12.15026 -9.84974,22 -22,22c-12.15026,0 -22,-9.84974 -22,-22z" id="base 1 5" fill="#f3c87d" stroke-width="1"></path><path d="M13.87711,39.36149c-0.13972,-0.13972 -0.19827,-0.34453 -0.14874,-0.54025l2.4471,-9.64491l-8.30663,-8.30663c-0.14979,-0.14979 -0.20486,-0.37216 -0.13877,-0.5764c0.0719,-0.2207 0.27067,-0.37543 0.50175,-0.39024l11.11252,-0.73178l4.12926,-10.34204c0.08576,-0.21555 0.29464,-0.35679 0.52643,-0.35679c0.15342,0 0.29647,0.06178 0.40067,0.16598l10.9754,10.9754l4.39187,0.28922c0.14014,0.00898 0.26832,0.0693 0.36353,0.16451l5.7911,5.7911c-0.94366,11.28041 -10.39833,20.14134 -21.92259,20.14134c-1.3007,0 -2.57504,-0.11288 -3.81375,-0.32937z" fill="url(#color-1)" stroke-width="1"></path><path transform="translate(-15.11407,-15.11407) scale(1.62975,1.62975)" d="M33.98293,21.72561c0.04401,0.13514 0.00114,0.28374 -0.10829,0.37482l-5.25259,4.37071l1.68043,6.62298c0.03486,0.13798 -0.01749,0.2833 -0.13264,0.36697c-0.06084,0.04423 -0.13258,0.0664 -0.20454,0.0664c-0.06433,0 -0.12855,-0.01765 -0.18542,-0.0536l-5.77982,-3.64477l-5.78009,3.64477c-0.12033,0.07604 -0.27459,0.07081 -0.38974,-0.01275c-0.1151,-0.08367 -0.16772,-0.229 -0.1328,-0.36697l1.68038,-6.62298l-5.25254,-4.37071c-0.10921,-0.09118 -0.15214,-0.23951 -0.10834,-0.37487c0.04412,-0.13542 0.16608,-0.23036 0.30787,-0.23945l6.81853,-0.44901l2.53367,-6.34577c0.05262,-0.13226 0.18079,-0.21892 0.32301,-0.21892c0.14233,0 0.27012,0.08666 0.32296,0.21892l2.53367,6.34577l6.81842,0.44901c0.14195,0.0091 0.26391,0.10404 0.30787,0.23945z" fill="none" stroke-width="0"></path><g id="Слой_1 2" stroke-width="1"><path d="M40.26971,20.2933c-0.07164,-0.22069 -0.27041,-0.37543 -0.50175,-0.39025l-11.11234,-0.73177l-4.12925,-10.34204c-0.08611,-0.21554 -0.29438,-0.35678 -0.52634,-0.35678c-0.23179,0 -0.44068,0.14124 -0.52643,0.35678l-4.12925,10.34204l-11.11252,0.73177c-0.23108,0.01483 -0.42985,0.16956 -0.50175,0.39025c-0.07137,0.2206 -0.00142,0.46234 0.17657,0.61095l8.56034,7.12317l-2.7386,10.79382c-0.0569,0.22487 0.02885,0.46172 0.21643,0.59807c0.18767,0.13618 0.43908,0.1447 0.63518,0.02077l9.42012,-5.94007l9.41968,5.94007c0.09268,0.05859 0.19735,0.08735 0.30219,0.08735c0.11727,0 0.23419,-0.03613 0.33335,-0.10822c0.18767,-0.13636 0.27298,-0.37321 0.21617,-0.59807l-2.73869,-10.79382l8.56043,-7.12317c0.17835,-0.14843 0.24821,-0.39061 0.17648,-0.61086z" fill="#d5584d"></path><path d="M24.00002,29.56446c-2.17125,0 -3.93706,-1.76626 -3.93706,-3.93715c0,-2.17098 1.7659,-3.93697 3.93706,-3.93697c2.17071,0 3.93715,1.76599 3.93715,3.93697c0,2.17098 -1.76643,3.93715 -3.93715,3.93715z" fill="#f3c87d"></path><path d="M24.00002,29.56446" fill="#d5584d"></path><path d="M22.44523,25.26574c-0.0087,-0.07368 -0.03489,-0.14204 -0.07422,-0.20099l3.5279,-1.17786l-0.18518,-0.55475c-0.0269,-0.0807 -0.11416,-0.12402 -0.19459,-0.09721l-3.83754,1.28128c-0.08052,0.02681 -0.12411,0.11399 -0.09721,0.19468l0.09082,0.27183c-0.09064,0.08416 -0.14754,0.20427 -0.14754,0.33743c0,0.17249 0.09543,0.32305 0.23614,0.40197v2.17267c0,0.08496 0.06889,0.15385 0.15376,0.15385h4.04581c0.08487,0 0.15376,-0.06889 0.15376,-0.15385v-2.62923h-3.67189zM24.6938,23.6915l0.46713,-0.1558l-0.11239,0.45426l-0.46713,0.15589zM23.53991,24.07678l0.46713,-0.15589l-0.11248,0.45426l-0.46713,0.15598zM21.98813,25.55479c-0.12934,0 -0.23463,-0.1052 -0.23463,-0.23454c0,-0.12943 0.10529,-0.23463 0.23463,-0.23463c0.12934,0 0.23463,0.1052 0.23463,0.23463c0,0.12943 -0.10529,0.23454 -0.23463,0.23454zM22.38593,24.46215l0.46713,-0.15607l-0.11248,0.45435l-0.46704,0.15598zM22.8448,25.78507h-0.49234l0.25043,-0.39522h0.49243zM23.81937,25.38984h0.49243l-0.25061,0.39522h-0.49217zM23.69854,27.30027v-1.04283l0.83048,0.52146zM25.27793,25.78507h-0.49234l0.25034,-0.39522h0.49243zM25.27793,25.78507" fill="#3b4167"></path></g><path d="M2,24c0,-12.15026 9.84974,-22 22,-22c12.15026,0 22,9.84974 22,22c0,12.15026 -9.84974,22 -22,22c-12.15026,0 -22,-9.84974 -22,-22z" id="base 1 1 1" fill="none" stroke-width="1"></path><g id="Слой_1 1 1" fill="#000000" stroke-width="1" font-family="Roboto, sans-serif" font-weight="normal" font-size="14" text-anchor="start"></g><rect x="2" y="2" width="44" height="22" fill="none" stroke-width="1"></rect><path d="M2,24v-22h44v22z" fill="none" stroke-width="1"></path><path d="M2,24v-22h44v22z" fill="none" stroke-width="1"></path><path d="M2,24v-22h44v22z" fill="none" stroke-width="1"></path><path d="M2,24v-22h44v22z" fill="none" stroke-width="1"></path></g></svg>